<?xml version="1.0" encoding="UTF-8" standalone="no"?>
<!-- Created with Inkscape (http://www.inkscape.org/) -->

<svg
   version="1.1"
   id="svg175"
   xml:space="preserve"
   width="286.66666"
   height="136"
   viewBox="0 0 286.66666 136"
   xmlns="http://www.w3.org/2000/svg"
   xmlns:svg="http://www.w3.org/2000/svg"><defs
     id="defs179" /><g
     id="g181"
     transform="matrix(1.3333333,0,0,-1.3333333,0,136)"><g
       id="g183"
       transform="scale(0.1)"><g
         id="g185"
         transform="scale(10)"><text
           transform="matrix(1,0,0,-1,36,28.5)"
           style="font-variant:normal;font-weight:300;font-size:17px;font-family:FrutigerLTStd;-inkscape-font-specification:FrutigerLTStd-Light;writing-mode:lr-tb;fill:#0492d2;fill-opacity:1;fill-rule:nonzero;stroke:none"
           id="text191"><tspan
             x="0 11.339 15.113 22.660999 26.434999 33.048 36.821999 46.273998 55.726002 60.452 68 76.5 80.274002 87.821999 97.274002 101.048 105.774 114.274 119.935 124.661 131.274 140.726 150.17799 155.839 159.61301 168.11301"
             y="0"
             id="tspan187">Division calcul et soutien</tspan><tspan
             x="0 8.5 13.226 17 25.5 30.226 35.58086 44.08086 51.62886 61.08086 69.580864 74.935944 82.48394 91.935944"
             y="19.5"
             id="tspan189">à la recherche</tspan></text></g><path
         d="m 1242.05,735.023 c -6.98,1.172 -63.33,6.719 -99.42,4.805 -20.08,-1.062 -105.29,-10.574 -142.13,-17.851 -32.297,-6.387 -77.461,-16.426 -126.855,-17.11 -61.098,-0.847 -89.922,12.324 -106.04,18.946 -16.089,6.652 -29.121,18.632 -34.449,24.707 -4.789,5.488 -5.101,14.648 -5.101,14.648 0,0 53,56.613 78.437,106.211 21.762,42.383 28.207,73.496 30.11,88.359 1.933,14.856 -1.868,27.129 -9.551,33 -7.754,5.86 -19.715,7.383 -30.887,1.172 -15.449,-8.535 -29.57,-25.637 -40.871,-41.574 -11.258,-15.945 -26.926,-39.023 -38.328,-78.106 -12.422,-42.714 -14.453,-60.886 -14.789,-70.703 -0.348,-9.785 0.863,-26.836 0.863,-26.836 0,0 -12.609,-17.011 -26.621,-30.527 -14.004,-13.496 -29.672,-25.723 -48.754,-22.519 -14.703,2.48 -16.09,19.453 -16.266,28.351 -0.16,8.867 3.973,20.379 5.254,30.145 1.297,9.726 2.11,6.925 -1.945,10.781 -4.07,3.887 -9.719,2.226 -17.676,2.031 -7.937,-0.195 -6.23,-4.91 -10.711,-12.695 -4.457,-7.774 -15.234,-30.36 -28.234,-42.051 -13.008,-11.68 -18.387,-11.406 -28.621,-10.098 -10.227,1.289 -16.156,6.153 -20.492,15.176 -4.356,9.024 -2.762,41.621 -3.36,50.528 -0.64,8.886 -4.898,15.285 -12.418,19.093 -9.086,4.637 -19.027,2.215 -27.582,-4.836 -8.855,-7.254 -23.992,-28.367 -30.406,-38.867 -6.426,-10.527 -19.805,-25.508 -23.32,-25.379 -4.18,0.145 -3.789,7.196 -2.356,19.266 0.946,7.988 1.867,18.594 2.16,27.949 0.34,9.297 -4.668,13.215 -13.925,15.402 -9.239,2.176 -17.071,-2.765 -22.766,-10.871 -6.574,-9.336 -19.27,-24.961 -32.453,-41.757 -13.199,-16.797 -34.215,-36.622 -42.129,-35.899 -7.93,0.762 -11.453,6.445 -14.391,15.899 -2.933,9.445 1.602,45.675 3.004,59.16 1.41,13.496 10.449,72.433 17.141,103.476 6.687,31.028 9.18,35.617 15.109,58.281 5.907,22.657 7.653,18.77 5.684,29.571 -1.945,10.801 -7.543,10.617 -13.574,12.226 -5.996,1.614 -8.692,1.719 -14.375,-0.879 -5.707,-2.617 -10.051,-4.871 -13.809,-19.199 -3.773,-14.344 -11.664,-38.945 -34.359,-87.168 -22.684,-48.222 -48.844,-90.215 -76.563,-133.008 -23.883,-36.894 -35.801,-40.312 -44.004,-38.476 -6.832,1.543 -7.5,11.074 -7.676,19.473 -0.195,8.418 2.278,20.324 6.528,35.109 4.258,14.773 15.449,43.894 25.613,68.262 10.207,24.382 31.086,67.156 48.086,104.843 18.602,41.25 21.945,59.446 23.809,65.286 2.41,7.57 -4.981,10.63 -10.969,13.17 -5.973,2.55 -15.602,-0.3 -15.602,-0.3 -6.359,-2.07 -11.144,-3.56 -16.496,-9.44 -5.351,-5.9 -20.89,-16.579 -28.105,-18.747 -5.262,-1.601 -5.574,-4.394 -2.625,-9.492 0,0 1.426,-5.723 7.996,-5 6.555,0.703 5.078,1.582 12.109,2.734 7.024,1.153 7.735,-6.894 3.078,-19.804 C 171.355,951 152.859,904.926 140.555,872.211 128.195,839.516 96.2383,764.984 93.0664,729.77 c -2.5898,-28.262 -4.7773,-46.602 12.8006,-62.207 23.344,-20.731 74.457,21.425 92.422,56.152 11.934,22.988 56.098,105.937 64.164,123.379 8.067,17.453 23.141,49.14 20.508,41.281 -2.578,-7.844 -17.289,-70.324 -23.91,-126.105 -6.629,-55.75 12.609,-60.965 25.918,-67.04 13.32,-6.054 30.687,4.872 39.75,11.571 9.136,6.66 42.945,50.664 45.937,56.64 3.008,5.95 10.313,5.938 10.176,2.668 -0.09,-3.273 0.035,-29.074 4.781,-40.441 4.746,-11.367 9.192,-17.117 22.559,-22.266 13.32,-5.117 21.019,3.594 36.488,25.157 15.918,22.148 23.985,42.851 27.625,47.285 5.031,6.074 4.813,-3.36 5.645,-12.332 0.925,-9.914 1.406,-26.653 13.504,-41.086 12.093,-14.414 20.394,-21.688 44.746,-18.789 24.375,2.883 47.777,35.625 47.777,35.625 0,0 2.051,-22 17.828,-37.012 15.82,-15.039 23.617,-14.551 47.52,-11.629 23.918,2.859 63.215,54.422 63.215,54.422 0,0 17.898,-23.875 39.472,-35.926 26.942,-15.058 79.082,-25.246 123.86,-25.871 44.793,-0.625 117.449,12.5 174.728,26.672 50.47,12.5 110.51,19.168 132.91,19.773 22.44,0.625 51.83,-4.832 54.23,-2.597 2.42,2.246 11.3,6.738 4.33,7.929 z M 757.277,908.48 c 22.793,38.868 43.219,57.559 49.782,54.922 6.546,-2.636 6.507,-4.433 1.761,-18.75 -4.711,-14.277 -14.328,-47.675 -39.668,-83.554 -25.39,-35.879 -44.882,-60.496 -44.882,-60.496 0,0 3.875,58.23 33.007,107.878"
         style="fill:#1c95cd;fill-opacity:1;fill-rule:evenodd;stroke:none"
         id="path193" /><path
         d="m 597.488,856.898 c 0.043,0.547 -0.879,1.915 1.875,1.633 2.735,-0.285 5.16,-1.222 5.453,-1.328 0.274,-0.109 1.961,-0.168 1.961,-0.168 0,0 1.59,7.051 2.286,7.785 0.671,0.723 2.089,0.977 2.8,2.364 0.715,1.394 1.918,3.425 4.426,4.48 2.492,1.055 2.414,1.164 4.973,1.055 2.535,-0.078 5.761,0.078 7.636,-0.633 1.891,-0.734 2.422,-0.949 3.7,-2.402 1.281,-1.477 2.863,-2.375 2.785,-4.172 -0.051,-1.797 0,-2.274 -0.219,-3.692 -0.234,-1.394 -1.043,-2.129 -0.211,-3.406 0.801,-1.242 1.149,-2.023 0.938,-3.527 -0.286,-1.504 0.418,-3.602 -1.02,-4.219 -1.445,-0.625 -5.973,-3.105 -7.891,-3.516 -1.89,-0.41 -8.496,-2.449 -10.234,-2.48 -1.676,-0.02 -7.187,-0.125 -8.98,0.031 -1.782,0.156 -5.911,0.692 -6.614,2.129 -0.734,1.453 -1.375,2.039 -1.906,3.758 -0.484,1.711 -1.758,6.308 -1.758,6.308"
         style="fill:#1c95cd;fill-opacity:1;fill-rule:evenodd;stroke:none"
         id="path195" /><path
         d="m 0,588.188 h 15.1289 v -43.477 c 0,-12.852 4.0899,-21.25 15.625,-21.25 11.5703,0 15.6524,8.398 15.6524,21.25 v 43.477 h 15.125 v -48.106 c 0,-20.184 -11.4258,-28.496 -30.7774,-28.496 C 11.4336,511.586 0,519.898 0,540.082 v 48.106"
         style="fill:#231f20;fill-opacity:1;fill-rule:nonzero;stroke:none"
         id="path197" /><path
         d="m 83.6328,588.188 h 18.5662 l 28.719,-56.329 h 0.227 v 56.329 h 14.468 V 512.875 H 127.117 L 98.3086,569.203 H 98.1133 V 512.875 H 83.6328 v 75.313"
         style="fill:#231f20;fill-opacity:1;fill-rule:nonzero;stroke:none"
         id="path199" /><path
         d="m 166.953,588.188 h 15.106 v -75.313 h -15.106 v 75.313"
         style="fill:#231f20;fill-opacity:1;fill-rule:nonzero;stroke:none"
         id="path201" /><path
         d="m 204.168,588.188 h 15.117 v -63.446 h 29.258 v -11.867 h -44.375 v 75.313"
         style="fill:#231f20;fill-opacity:1;fill-rule:nonzero;stroke:none"
         id="path203" /><path
         d="M 307.039,593.832 V 485.883 h -7.48 v 107.949 h 7.48"
         style="fill:#231f20;fill-opacity:1;fill-rule:nonzero;stroke:none"
         id="path205" /><path
         d="m 420.449,539.203 c 0,-22.215 -16.281,-27.617 -27.312,-27.617 -10.996,0 -27.278,5.402 -27.278,27.617 v 48.985 h 7.414 v -48.985 c 0,-12.285 6.832,-21.152 19.864,-21.152 13.074,0 19.859,8.867 19.859,21.152 v 48.985 h 7.453 v -48.985"
         style="fill:#231f20;fill-opacity:1;fill-rule:nonzero;stroke:none"
         id="path207" /><path
         d="m 443.543,554.965 c 0,4.219 0,8.535 -0.445,12.93 h 6.601 v -9.786 h 0.211 c 2.266,4.954 6.399,11.094 17.832,11.094 13.555,0 18.75,-9.062 18.75,-21.121 v -35.207 h -6.804 v 33.438 c 0,10.402 -3.645,17.07 -13.055,17.07 -12.406,0 -16.274,-10.899 -16.274,-20.067 v -30.441 h -6.816 v 42.09"
         style="fill:#231f20;fill-opacity:1;fill-rule:nonzero;stroke:none"
         id="path209" /><path
         d="m 516.297,582.621 h -6.817 v 9.035 h 6.817 v -9.035 m -6.817,-14.726 h 6.817 v -55.02 h -6.817 v 55.02"
         style="fill:#231f20;fill-opacity:1;fill-rule:nonzero;stroke:none"
         id="path211" /><path
         d="m 558.508,512.875 h -7.988 l -18.672,55.02 h 7.437 l 15.219,-47.559 h 0.195 l 15.996,47.559 h 7.09 l -19.277,-55.02"
         style="fill:#231f20;fill-opacity:1;fill-rule:nonzero;stroke:none"
         id="path213" /><path
         d="m 630.148,514.594 c -4.757,-1.934 -10.91,-3.008 -15.988,-3.008 -18.211,0 -25.039,12.297 -25.039,28.789 0,16.855 9.297,28.828 23.195,28.828 15.567,0 21.911,-12.488 21.911,-27.285 v -3.457 h -37.676 c 0,-11.648 6.293,-21.055 18.168,-21.055 4.941,0 12.187,2.071 15.429,4.114 v -6.926 m -3.343,29.679 c 0,9.618 -3.903,19.11 -14.032,19.11 -10.058,0 -16.222,-10.039 -16.222,-19.11 h 30.254"
         style="fill:#231f20;fill-opacity:1;fill-rule:nonzero;stroke:none"
         id="path215" /><path
         d="m 653.113,555.629 c 0,6.016 0,8.301 -0.429,12.266 h 6.828 v -10.567 h 0.187 c 2.477,6.172 7.149,11.875 14.121,11.875 1.641,0 3.575,-0.312 4.766,-0.633 v -7.14 c -1.387,0.468 -3.227,0.664 -4.965,0.664 -10.789,0 -13.707,-12.098 -13.707,-22.012 v -27.207 h -6.801 v 42.754"
         style="fill:#231f20;fill-opacity:1;fill-rule:nonzero;stroke:none"
         id="path217" /><path
         d="m 690.793,520.863 c 4.07,-2.031 9.078,-3.457 14.336,-3.457 6.465,0 12.207,3.574 12.207,9.824 0,13.059 -26.445,11.036 -26.445,26.973 0,10.899 8.875,15 17.906,15 2.933,0 8.75,-0.633 13.598,-2.461 l -0.657,-5.937 c -3.515,1.601 -8.406,2.578 -12.179,2.578 -7.012,0 -11.875,-2.168 -11.875,-9.18 0,-10.234 27.109,-8.933 27.109,-26.973 0,-11.64 -10.938,-15.644 -19.238,-15.644 -5.27,0 -10.567,0.625 -15.407,2.609 l 0.645,6.668"
         style="fill:#231f20;fill-opacity:1;fill-rule:nonzero;stroke:none"
         id="path219" /><path
         d="m 749.734,582.621 h -6.816 v 9.035 h 6.816 v -9.035 m -6.816,-14.726 h 6.816 v -55.02 h -6.816 v 55.02"
         style="fill:#231f20;fill-opacity:1;fill-rule:nonzero;stroke:none"
         id="path221" /><path
         d="m 796.551,562.094 h -12.516 v -35.606 c 0,-4.968 1.817,-9.082 7.344,-9.082 2.586,0 4.293,0.567 6.269,1.309 l 0.43,-5.606 c -1.633,-0.683 -4.992,-1.523 -8.332,-1.523 -12.09,0 -12.527,8.312 -12.527,18.359 v 32.149 h -10.785 v 5.801 h 10.785 v 13.3 l 6.816,2.364 v -15.664 h 12.516 v -5.801"
         style="fill:#231f20;fill-opacity:1;fill-rule:nonzero;stroke:none"
         id="path223" /><path
         d="m 851.574,514.594 c -4.726,-1.934 -10.91,-3.008 -15.961,-3.008 -18.242,0 -25.058,12.297 -25.058,28.789 0,16.855 9.3,28.828 23.226,28.828 15.524,0 21.883,-12.488 21.883,-27.285 v -3.457 H 818.02 c 0,-11.648 6.277,-21.055 18.144,-21.055 4.949,0 12.156,2.071 15.41,4.114 v -6.926 m -3.344,29.679 c 0,9.618 -3.902,19.11 -14.039,19.11 -10.023,0 -16.171,-10.039 -16.171,-19.11 h 30.21 m -11.324,44.903 h 8.512 l -13.57,-15.539 h -4.985 l 10.043,15.539"
         style="fill:#231f20;fill-opacity:1;fill-rule:nonzero;stroke:none"
         id="path225" /><path
         d="m 954.102,512.875 h -6.809 v 8.77 h -0.203 c -3.672,-7.051 -9.289,-10.059 -17.176,-10.059 -15.098,0 -22.637,12.5 -22.637,28.789 0,16.738 6.485,28.828 22.637,28.828 10.816,0 16.219,-7.859 17.176,-10.586 h 0.203 v 35.215 h 6.809 v -80.957 m -23.086,4.531 c 12.082,0 16.277,12.949 16.277,22.969 0,10.059 -4.195,23.008 -16.277,23.008 -12.977,0 -16.297,-12.313 -16.297,-23.008 0,-10.664 3.32,-22.969 16.297,-22.969"
         style="fill:#231f20;fill-opacity:1;fill-rule:nonzero;stroke:none"
         id="path227" /><path
         d="m 1013.37,514.594 c -4.76,-1.934 -10.91,-3.008 -16.007,-3.008 -18.211,0 -25.027,12.297 -25.027,28.789 0,16.855 9.305,28.828 23.203,28.828 15.551,0 21.891,-12.488 21.891,-27.285 v -3.457 h -37.653 c 0,-11.648 6.289,-21.055 18.164,-21.055 4.919,0 12.189,2.071 15.429,4.114 v -6.926 m -3.38,29.679 c 0,9.618 -3.85,19.11 -14.006,19.11 -10.035,0 -16.207,-10.039 -16.207,-19.11 h 30.213"
         style="fill:#231f20;fill-opacity:1;fill-rule:nonzero;stroke:none"
         id="path229" /><path
         d="m 1072.37,588.188 h 7.48 v -68.829 h 30.22 v -6.484 h -37.7 v 75.313"
         style="fill:#231f20;fill-opacity:1;fill-rule:nonzero;stroke:none"
         id="path231" /><path
         d="m 1157.75,521.723 h -0.25 c -3,-6.571 -10.65,-10.137 -17.45,-10.137 -15.64,0 -18.12,10.586 -18.12,15.539 0,18.465 19.62,19.324 33.86,19.324 h 1.31 v 2.813 c 0,9.355 -3.36,14.121 -12.48,14.121 -5.75,0 -11.13,-1.289 -16.23,-4.52 v 6.563 c 4.18,2.058 11.33,3.777 16.23,3.777 13.56,0 19.28,-6.14 19.28,-20.488 V 524.43 c 0,-4.426 0,-7.766 0.53,-11.555 h -6.68 v 8.848 m -0.65,18.886 h -1.94 c -11.77,0 -25.8,-1.191 -25.8,-13.261 0,-7.254 5.19,-9.942 11.46,-9.942 15.95,0 16.28,13.926 16.28,19.864 v 3.339"
         style="fill:#231f20;fill-opacity:1;fill-rule:nonzero;stroke:none"
         id="path233" /><path
         d="m 1228.96,525.836 c 0,-4.191 0,-8.555 0.47,-12.961 h -6.63 v 9.824 h -0.18 c -2.32,-4.961 -6.38,-11.113 -17.78,-11.113 -13.62,0 -18.81,9.062 -18.81,21.133 v 35.176 h 6.79 v -33.418 c 0,-10.391 3.68,-17.071 13.07,-17.071 12.38,0 16.28,10.918 16.28,20.078 v 30.411 h 6.79 v -42.059"
         style="fill:#231f20;fill-opacity:1;fill-rule:nonzero;stroke:none"
         id="path235" /><path
         d="m 1247.74,520.863 c 4.11,-2.031 9.06,-3.457 14.36,-3.457 6.49,0 12.2,3.574 12.2,9.824 0,13.059 -26.44,11.036 -26.44,26.973 0,10.899 8.85,15 17.9,15 2.9,0 8.76,-0.633 13.61,-2.461 l -0.66,-5.937 c -3.55,1.601 -8.42,2.578 -12.17,2.578 -7.01,0 -11.88,-2.168 -11.88,-9.18 0,-10.234 27.09,-8.933 27.09,-26.973 0,-11.64 -10.89,-15.644 -19.21,-15.644 -5.27,0 -10.57,0.625 -15.42,2.609 l 0.62,6.668"
         style="fill:#231f20;fill-opacity:1;fill-rule:nonzero;stroke:none"
         id="path237" /><path
         d="m 1331.5,521.723 h -0.22 c -3.02,-6.571 -10.66,-10.137 -17.46,-10.137 -15.68,0 -18.14,10.586 -18.14,15.539 0,18.465 19.62,19.324 33.86,19.324 h 1.31 v 2.813 c 0,9.355 -3.36,14.121 -12.56,14.121 -5.67,0 -11.1,-1.289 -16.15,-4.52 v 6.563 c 4.2,2.058 11.33,3.777 16.15,3.777 13.64,0 19.36,-6.14 19.36,-20.488 V 524.43 c 0,-4.426 0,-7.766 0.53,-11.555 h -6.68 v 8.848 m -0.65,18.886 h -1.94 c -11.77,0 -25.83,-1.191 -25.83,-13.261 0,-7.254 5.21,-9.942 11.49,-9.942 15.95,0 16.28,13.926 16.28,19.864 v 3.339"
         style="fill:#231f20;fill-opacity:1;fill-rule:nonzero;stroke:none"
         id="path239" /><path
         d="m 1359.78,554.965 c 0,4.219 0,8.535 -0.45,12.93 h 6.6 v -9.786 h 0.2 c 2.28,4.954 6.4,11.094 17.8,11.094 13.62,0 18.8,-9.062 18.8,-21.121 v -35.207 h -6.78 v 33.438 c 0,10.402 -3.69,17.07 -13.09,17.07 -12.38,0 -16.31,-10.899 -16.31,-20.067 v -30.441 h -6.77 v 42.09"
         style="fill:#231f20;fill-opacity:1;fill-rule:nonzero;stroke:none"
         id="path241" /><path
         d="m 1425.7,554.965 c 0,4.219 0,8.535 -0.43,12.93 h 6.61 v -9.786 h 0.2 c 2.26,4.954 6.35,11.094 17.79,11.094 13.62,0 18.78,-9.062 18.78,-21.121 v -35.207 h -6.8 v 33.438 c 0,10.402 -3.67,17.07 -13.03,17.07 -12.44,0 -16.31,-10.899 -16.31,-20.067 v -30.441 h -6.81 v 42.09"
         style="fill:#231f20;fill-opacity:1;fill-rule:nonzero;stroke:none"
         id="path243" /><path
         d="m 1528.55,514.594 c -4.73,-1.934 -10.92,-3.008 -15.94,-3.008 -18.28,0 -25.04,12.297 -25.04,28.789 0,16.855 9.26,28.828 23.16,28.828 15.54,0 21.94,-12.488 21.94,-27.285 v -3.457 h -37.68 c 0,-11.648 6.27,-21.055 18.14,-21.055 4.97,0 12.2,2.071 15.42,4.114 v -6.926 m -3.32,29.679 c 0,9.618 -3.91,19.11 -14.06,19.11 -10.03,0 -16.18,-10.039 -16.18,-19.11 h 30.24"
         style="fill:#231f20;fill-opacity:1;fill-rule:nonzero;stroke:none"
         id="path245" /></g></g></svg>
